<svg id="Group_482" data-name="Group 482" xmlns="http://www.w3.org/2000/svg" width="32" height="32" viewBox="0 0 32 32">
  <path id="Icon_awesome-phone" data-name="Icon awesome-phone" d="M16.948.845,13.376.02A.83.83,0,0,0,12.431.5L10.782,4.345a.822.822,0,0,0,.237.962l2.082,1.7A12.731,12.731,0,0,1,7.014,13.1l-1.7-2.082a.824.824,0,0,0-.962-.237L.5,12.428a.834.834,0,0,0-.481.948l.824,3.572a.824.824,0,0,0,.8.639A15.937,15.937,0,0,0,17.587,1.648.823.823,0,0,0,16.948.845Z" transform="translate(7.001 7.001)" fill="#3eb0b0"/>
  <path id="Path_4" data-name="Path 4" d="M19.375,5.529A13.841,13.841,0,1,1,9.583,9.583a13.755,13.755,0,0,1,9.792-4.054m0-2.154a16,16,0,1,0,16,16,16,16,0,0,0-16-16Z" transform="translate(-3.375 -3.375)" fill="#3eb0b0"/>
</svg>
