<svg id="Group_574" data-name="Group 574" xmlns="http://www.w3.org/2000/svg" width="32" height="32" viewBox="0 0 32 32">
  <g id="Icon_ionic-ios-checkmark-circle-outline" data-name="Icon ionic-ios-checkmark-circle-outline">
    <path id="Path_4" data-name="Path 4" d="M19.375,5.529A13.841,13.841,0,1,1,9.583,9.583a13.755,13.755,0,0,1,9.792-4.054m0-2.154a16,16,0,1,0,16,16,16,16,0,0,0-16-16Z" transform="translate(-3.375 -3.375)" fill="#fb0"/>
  </g>
  <path id="Icon_awesome-star" data-name="Icon awesome-star" d="M9.476.6l-2.2,4.455L2.363,5.77a1.077,1.077,0,0,0-.6,1.837l3.556,3.465-.841,4.9A1.076,1.076,0,0,0,6.044,17.1l4.4-2.311,4.4,2.311A1.077,1.077,0,0,0,16.4,15.967l-.841-4.9,3.556-3.465a1.077,1.077,0,0,0-.6-1.837L13.6,5.053,11.407.6A1.078,1.078,0,0,0,9.476.6Z" transform="translate(5.559 7.001)" fill="#fb0"/>
</svg>
