<svg id="Icon_ionic-ios-checkmark-circle-outline" data-name="Icon ionic-ios-checkmark-circle-outline" xmlns="http://www.w3.org/2000/svg" width="32" height="32" viewBox="0 0 32 32">
  <path id="Path_3" data-name="Path 3" d="M28.231,13.563l-1.462-1.273a.344.344,0,0,0-.233-.084h0a.33.33,0,0,0-.233.084L16.167,20.932,12.478,17.81a.363.363,0,0,0-.465,0l-1.479,1.252a.251.251,0,0,0,0,.4L15.187,23.4a1.592,1.592,0,0,0,.972.4,1.66,1.66,0,0,0,.964-.387h.008l11.108-9.45A.267.267,0,0,0,28.231,13.563Z" transform="translate(-3.375 -1.999)" fill="#202020"/>
  <path id="Path_4" data-name="Path 4" d="M19.375,5.529A13.841,13.841,0,1,1,9.583,9.583a13.755,13.755,0,0,1,9.792-4.054m0-2.154a16,16,0,1,0,16,16,16,16,0,0,0-16-16Z" transform="translate(-3.375 -3.375)" fill="#202020"/>
</svg>
