<svg xmlns="http://www.w3.org/2000/svg" width="34" height="34" viewBox="0 0 34 34">
  <g id="Group_837" data-name="Group 837" transform="translate(-483 -1303.5)">
    <g id="Icon_feather-link" data-name="Icon feather-link" transform="translate(488.508 1308.992)">
      <path id="Path_68" data-name="Path 68" d="M15,12.255a4.205,4.205,0,0,0,6.341.454l2.523-2.523a4.2,4.2,0,1,0-5.946-5.946L16.472,5.678" transform="translate(-5.275 0)" fill="none" stroke="#437fb8" stroke-linecap="round" stroke-linejoin="round" stroke-width="2"/>
      <path id="Path_69" data-name="Path 69" d="M13.089,15.179a4.205,4.205,0,0,0-6.341-.454L4.225,17.248a4.2,4.2,0,1,0,5.946,5.946l1.438-1.439" transform="translate(0 -4.606)" fill="none" stroke="#437fb8" stroke-linecap="round" stroke-linejoin="round" stroke-width="2"/>
    </g>
    <path id="Path_70" data-name="Path 70" d="M35,19A16,16,0,1,1,19,3,16,16,0,0,1,35,19Z" transform="translate(481 1301.5)" fill="none" stroke="#437fb8" stroke-linecap="round" stroke-linejoin="round" stroke-width="2"/>
  </g>
</svg>
