<svg xmlns="http://www.w3.org/2000/svg" width="34" height="34" viewBox="0 0 34 34">
  <g id="Group_838" data-name="Group 838" transform="translate(-482.914 -1469)">
    <path id="Path_570" data-name="Path 570" d="M35,19A16,16,0,1,1,19,3,16,16,0,0,1,35,19Z" transform="translate(480.914 1467)" fill="none" stroke="#bf2b2b" stroke-linecap="round" stroke-linejoin="round" stroke-width="2"/>
    <path id="Icon_awesome-map-marker-alt" data-name="Icon awesome-map-marker-alt" d="M6.741,19.63C1.055,11.388,0,10.542,0,7.513a7.513,7.513,0,0,1,15.025,0c0,3.029-1.055,3.875-6.741,12.117a.939.939,0,0,1-1.544,0Zm.772-8.987a3.13,3.13,0,1,0-3.13-3.13A3.13,3.13,0,0,0,7.513,10.643Z" transform="translate(492.488 1475.984)" fill="#bf2b2b"/>
  </g>
</svg>
