<svg id="Icon_ionic-ios-checkmark-circle-outline" data-name="Icon ionic-ios-checkmark-circle-outline" xmlns="http://www.w3.org/2000/svg" width="32" height="32" viewBox="0 0 32 32">
  <path id="Path_4" data-name="Path 4" d="M19.375,5.529A13.841,13.841,0,1,1,9.583,9.583a13.755,13.755,0,0,1,9.792-4.054m0-2.154a16,16,0,1,0,16,16,16,16,0,0,0-16-16Z" transform="translate(-3.375 -3.375)" fill="#47adc5"/>
  <path id="Icon_awesome-plus" data-name="Icon awesome-plus" d="M16.235,9.118h-5.62V3.5A1.249,1.249,0,0,0,9.366,2.25H8.117A1.249,1.249,0,0,0,6.868,3.5v5.62H1.249A1.249,1.249,0,0,0,0,10.367v1.249a1.249,1.249,0,0,0,1.249,1.249h5.62v5.62a1.249,1.249,0,0,0,1.249,1.249H9.366a1.249,1.249,0,0,0,1.249-1.249v-5.62h5.62a1.249,1.249,0,0,0,1.249-1.249V10.367A1.249,1.249,0,0,0,16.235,9.118Z" transform="translate(7 4.75)" fill="#47adc5"/>
</svg>
