<svg xmlns="http://www.w3.org/2000/svg" width="71.91" height="71.909" viewBox="0 0 71.91 71.909">
  <g id="Group_834" dataName="Group 834" transform="translate(-0.001 0.001)">
    <path id="Path_530" dataName="Path 530" d="M713.2,423" transform="translate(-688.532 -385.353)" fill="#fff"/>
    <path id="Path_539" dataName="Path 539" d="M773.1,366" transform="translate(-728.546 -347.277)"/>
    <path id="Path_545" dataName="Path 545" d="M646.386,337.54c3.785,1.892,6.972,3.32,9.2,4.283,0,0,11.919,5.146,14.94,7.7a10.845,10.845,0,0,0,1.062.83,14.943,14.943,0,0,0,3.121,1.76c.465.2,2.888,1.162,4.283.83,3.154-.7,3.22-8.067,5.113-14.475a38.536,38.536,0,0,1,9.5-15.77c2.291,1.793,4.581,3.552,6.839,5.345,1.56.863,5.578,3.32,6.54,7.636.2.83.664,3.552-3.22,10.69-1.892,3.453-4.581,6.939-9.927,13.745-5.611,7.1-4.548,5.312-6.042,7.47-2.656,3.851-3.652,6.208-6.673,7.636a8.084,8.084,0,0,1-4.747.8c-2.457-.365-3.818-1.959-6.009-3.918a91.374,91.374,0,0,0-7.636-5.644c-2.722-1.859-3.121-1.859-5.312-3.486-.5-.365-1-.764-4.681-3.818-2.523-2.092-3.785-3.154-4.216-3.519a71.258,71.258,0,0,1-5.71-5.611,65.25,65.25,0,0,1,1.693-7.2C645.157,340.96,645.755,339.2,646.386,337.54Z" transform="translate(-641.505 -318.352)" fill="#437fb8"/>
    <path id="Path_551" dataName="Path 551" d="M648.4,375.39c2.324,1.129,5.411,2.656,9.03,4.648,3.519,1.926,2.689,1.627,6.374,3.619,3.088,1.693,5.976,3.785,9.063,5.544,1.1.6,2.722,1.527,2.955,2.988.1.631-.1,1.262.332,1.726a1.458,1.458,0,0,0,1.693.266,2.057,2.057,0,0,0,.83-1.428c.232-1-.1-1.328.232-2.258a2.729,2.729,0,0,1,.465-.83,3.042,3.042,0,0,1,.8-.73,1.72,1.72,0,0,0,0-1.328c-.066-.133-.266-.664-.73-.8-.232-.066-.3,0-1.2.2a3.62,3.62,0,0,1-.863.133,3.119,3.119,0,0,1-.963-.166,3.252,3.252,0,0,1-1.461-1.062c-.564-.7-4.25-2.955-14.442-8.333-3.453-1.594-6.939-3.187-10.391-4.781Z" transform="translate(-645.245 -351.819)" fill="#fff"/>
    <path id="Path_552" dataName="Path 552" d="M766.387,337.73c-.6,1.295-1.527,3.187-2.756,5.445-.365.7-.9,1.627-4.847,8.134-.365.631-2.623,4.283-4.714,7.4-.166.232-.93,1.394-2.058,2.822a15.241,15.241,0,0,1-1.926,2.258c-1.627,1.361-2.39.863-3.851,2.158a6.416,6.416,0,0,0-1.892,3.021,3.832,3.832,0,0,0-.033,2.457,4.051,4.051,0,0,0,2.025,1.992,6.48,6.48,0,0,0,4.05.8,6.556,6.556,0,0,0,3.652-1.892c.83-.83.8-1.262,2.357-3.42.631-.863,1.1-1.394,1.394-1.793,1.66-2.092,2.822-4.316,5.943-9.694,1.892-3.254,1.859-3.154,3.752-6.474.764-1.361,1.494-2.656,2.656-4.648.863-1.461,1.56-2.689,2.025-3.453L766.885,337Z" transform="translate(-709.184 -327.904)" fill="#fff"/>
    <path id="Path_555" dataName="Path 555" d="M642.631,395.012c8.864,7.569,14.375,11.354,17.894,13.379,3.054,1.76,5.777,4.017,8.831,5.777,1.992,1.162,3.586,1.859,4.449,3.519a3.867,3.867,0,0,0,1.262,1.56,3.957,3.957,0,0,0,2.523.631c.863-.066,1.594-.432,2.922-1.56.73-.631,5.046-4.25,4.216-5.743a1.208,1.208,0,0,0-.564-.465c-.73-.332-1.361.266-2.424.432a5.076,5.076,0,0,1-2.523-.432,5.874,5.874,0,0,1-2.457-1.394c-.465-.465-.531-.73-1.361-1.527-.631-.6-1-.863-1.394-.83-.332,0-.365.2-.83.266a1.87,1.87,0,0,1-1.295-.332c-.332-.266-.365-.5-.631-.963a5.759,5.759,0,0,0-1.295-1.494,4.336,4.336,0,0,0-2.39-.73,21.674,21.674,0,0,1-4.548-1.527,30.367,30.367,0,0,1-5.08-2.689c-1.56-.93-1.228-.83-5.909-3.984-4.847-3.254-4.814-3.121-5.345-3.685a5.021,5.021,0,0,0-3.187-1.627c-1.062.1-1,.863-1,1.959Z" transform="translate(-641.302 -364.37)" fill="#fff"/>
    <path id="Path_557" dataName="Path 557" d="M674.855,311.924a33.631,33.631,0,1,1-33.631,33.631,33.651,33.651,0,0,1,33.631-33.631m0-2.324a35.955,35.955,0,1,0,35.955,35.955A35.96,35.96,0,0,0,674.855,309.6Z" transform="translate(-638.899 -309.601)" fill="#437fb8"/>
  </g>
</svg>
