<svg xmlns="http://www.w3.org/2000/svg" width="72.321" height="72.321" viewBox="0 0 72.321 72.321">
  <g id="Group_832" dataName="Group 832" transform="translate(0 -0.001)">
    <path id="Path_482" dataName="Path 482" d="M675.06-286.763a33.843,33.843,0,0,1,33.823,33.823,33.843,33.843,0,0,1-33.823,33.823,33.864,33.864,0,0,1-33.823-33.823,33.864,33.864,0,0,1,33.823-33.823m0-2.337a36.166,36.166,0,0,0-36.16,36.16,36.166,36.166,0,0,0,36.16,36.16,36.166,36.166,0,0,0,36.16-36.16,36.144,36.144,0,0,0-36.16-36.16Z" transform="translate(-638.901 289.101)" fill="#437fb8"/>
    <path id="Path_483" dataName="Path 483" d="M661.3-267.811c1.736,3.539,4.541,10.25,3.806,16.628-.534,4.775-.868,7.78-2.237,10.584a7.243,7.243,0,0,0-.8,2.738A7.547,7.547,0,0,0,664-232.419c.735.735,2.137,1.669,5.943,1.77,5.309.134,6.344-1.569,13.289-2.571,5.209-.735,7.713-.2,9.282.334,2.037.668,1.836,1.1,3.84,1.77,3.84,1.3,4.775-.167,10.584.334a24.587,24.587,0,0,0,7.846,0,3.965,3.965,0,0,0,2.4-1.269c.835-1.1.968-2.871.167-3.673-.668-.668-1.669-.434-3.038-.4-1.536.033-3.172-.4-6.411-1.269a38.237,38.237,0,0,1-8.748-3.773c-3.94-2.1-3.84-2.571-6.578-3.673-3.639-1.469-4.24-.8-6.01-2.07-1.9-1.369-2.7-3.372-4.341-7.379a23.629,23.629,0,0,1-2.07-7.379c-.033-.3-.067-1.068-.1-1.937-.067-1.937-.033-3.339,0-4.007.067-2.6-.033-2.738,0-6.444,0-1.6.033-3.94.167-6.845-3.072,1.436-6.144,2.838-9.215,4.274C667.811-273.755,664.539-270.783,661.3-267.811Z" transform="translate(-653.821 283.639)" fill="#437fb8"/>
    <path id="Path_484" dataName="Path 484" d="M688.5-272.995c.467,7.446.968,14.858,1.436,22.3a3.853,3.853,0,0,0-.6,1.436c-.1.7.134.968.4,2.471.167,1.035.067,1.1.267,1.5a2.815,2.815,0,0,0,1.436,1.436,2.43,2.43,0,0,0,2.337-.067c.835-.634.568-1.97,1.1-2.07.367-.067.534.534,1.035.6.735.067,1.77-1.1,1.836-2.27.033-1-.668-1.336-1.369-3.139a11.639,11.639,0,0,1-.6-2.2,50.09,50.09,0,0,1-.9-8.514c-.033-3.94-.1-8.815-.033-14.491C692.74-275,690.6-274,688.5-272.995Z" transform="translate(-671.94 280.375)" fill="#fff"/>
    <path id="Path_485" dataName="Path 485" d="M676.791-179.413c1.035-.434,1.7.835,3.439.835a5.045,5.045,0,0,0,2.538-.7c.6-.367.935-.8,1.436-.735a1.337,1.337,0,0,1,.9.735c.234.434.033.668.234,1,.334.5,1.035.2,1.4.634.5.634-.334,2.037-.4,2.17-.3.534-.468.5-1.169,1.4-.534.7-.8,1.068-.835,1.4-.067.735.467.935.434,1.836a2.234,2.234,0,0,1-.3.968,2.539,2.539,0,0,1-.868.8c-.534.367-.968.568-1.069.634a7.068,7.068,0,0,1-2.237.568c-1.7.134-2.137-.467-2.771-.067s-.334,1.068-1.035,1.836a3.338,3.338,0,0,1-2.237.935c-1.97.033-3.74-2.17-4.073-4.307-.234-1.5.2-3.673,1.5-4.341,1.068-.534,2,.234,3.072-.534a3.178,3.178,0,0,0,1.035-1.669c.2-.968-.3-1.4,0-2.27A2.389,2.389,0,0,1,676.791-179.413Z" transform="translate(-659.696 216.442)" fill="#fff"/>
    <path id="Path_486" dataName="Path 486" d="M717.46-174.184c-.6.534.1,1.3-.467,2.538a12.1,12.1,0,0,1-1.669,2.4,1.527,1.527,0,0,0-.334.7,1.78,1.78,0,0,0,1.068,1.569c1.1.5,2.671-.334,3.472-1.336a6.472,6.472,0,0,0,.868-2.9,3.027,3.027,0,0,0-.033-1.937,2.3,2.3,0,0,0-1.336-1.135A1.753,1.753,0,0,0,717.46-174.184Z" transform="translate(-689.581 212.716)" fill="#fff"/>
    <path id="Path_487" dataName="Path 487" d="M729.071-171.046c-.2.167-.2.434-.267.9-.1.968-.2.7-.367,1.9-.2,1.536.033,1.436-.167,1.8-.5.935-1.669,1-1.669,1.736a.662.662,0,0,0,.1.367c.3.467,1.1.267,2.137.367,1.536.134,1.77.768,2.3.467.868-.467.868-2.4.868-2.8,0-.634-.1-.768.067-1.1.367-.768,1.369-.6,1.7-1.336a1.213,1.213,0,0,0-.234-1.3c-.134-.1-.234-.1-.835-.167a7.1,7.1,0,0,1-1.4-.234c-.568-.234-.534-.5-1.1-.668A1.258,1.258,0,0,0,729.071-171.046Z" transform="translate(-697.318 210.58)" fill="#fff"/>
    <path id="Path_488" dataName="Path 488" d="M745.972-165.213c-.367.033-.7.367-1.369.968a4.087,4.087,0,0,0-1.1,1.2,7.756,7.756,0,0,0-.2,1.7,2.656,2.656,0,0,1-.167,1.035c-.234.434-.534.5-.534.735,0,.134.134.4,1.569.835a21.919,21.919,0,0,0,2.538.568c1.436.167,1.3-.033,1.97.134.735.167.935.434,3.239,2.1a5.722,5.722,0,0,0,2.27,1.235,2.538,2.538,0,0,0,1.636-.134,2.065,2.065,0,0,0,.735-.835,3,3,0,0,0,.1-2.671c-.234-.4-.467-.467-.568-.9-.134-.5.1-.735-.067-1.1-.133-.367-.534-.534-.968-.735-1.536-.634-1.97-.534-2.771-.9-1.1-.534-.768-.968-1.9-1.536-1.068-.534-1.336-.134-2.538-.735C746.774-164.812,746.573-165.279,745.972-165.213Z" transform="translate(-707.976 206.583)" fill="#fff"/>
    <path id="Path_489" dataName="Path 489" d="M785.064-151.609c-.234.2-.167.634-.134.835.1.634.468.735.7,1.336a3.148,3.148,0,0,1,0,1.669c-.167.9-.5,1.1-.334,1.469.234.5,1.1.568,1.2.6.6.033.768-.234,1.836-.534a4.373,4.373,0,0,1,1.336-.267c.868.033,1.035.434,1.97.467a1.459,1.459,0,0,0,1.169-.3c.467-.5.1-1.5-.033-1.836a2.193,2.193,0,0,0-1.1-1.436c-.735-.3-1.135.367-2.3.234a3.4,3.4,0,0,1-1.669-.668c-.634-.5-.534-.868-1.2-1.3C786.132-151.576,785.4-151.876,785.064-151.609Z" transform="translate(-736.149 197.587)" fill="#fff"/>
    <path id="Path_490" dataName="Path 490" d="M810.155-143.606c.467-.3.9.134,1.9.3.434.067.367,0,1.736.067.668.033.968.067,1.1.3a.828.828,0,0,1-.033.835,1.5,1.5,0,0,1-.968.568c-.7.134-.968-.2-1.436.033-.334.167-.234.334-.634.634-.3.234-1,.634-1.469.334a1.063,1.063,0,0,1-.367-1.068c.067-.4.334-.434.334-.735,0-.434-.5-.6-.434-.935A.566.566,0,0,1,810.155-143.606Z" transform="translate(-752.793 192.255)" fill="#fff"/>
  </g>
</svg>
