<svg xmlns="http://www.w3.org/2000/svg" width="71.839" height="71.839" viewBox="0 0 71.839 71.839">
  <g id="Group_833" dataName="Group 833" transform="translate(0 0)">
    <path id="Path_491" dataName="Path 491" d="M739.9,43.5" transform="translate(-706.401 -30.134)"/>
    <g id="Group_835" dataName="Group 835" transform="translate(-7.241 -6)">
      <path id="Path_494" dataName="Path 494" d="M746,56.458c-.291-1.793-1.163-4.313-2.229-4.313-.63,0-1.066.775-1.26,1.115a5.809,5.809,0,0,0-.485,4.023c.921,5.089-3.15,12.068-3.344,12.019-.1-.048.339-1.405.776-4.362.194-1.454.291-2.617.339-3.15a45.879,45.879,0,0,0,.145-8.481c-.1-1.26-.388-2.908-.969-6.252-.436-2.472-.678-3.683-1.745-4.653-.727-.679-2.084-1.405-2.859-.969-.872.485-.582,2.036-.484,5.137,0,0,.145,3.635-.146,8-.242,3.489-.921,7.221-1.26,7.221-.291,0-.242-2.181-.63-10.711a62.661,62.661,0,0,0-.969-8.627c-.533-3-1.066-4.75-2.569-5.913-.969-.727-2.714-1.6-3.683-.969-1.066.679-.485,2.617-.145,7.027.485,6.155-.436,5.525.145,9.935.388,3,1.018,4.895.339,7.851-.291,1.26-.921,3.1-1.454,3.053-.436-.048-.63-1.454-1.115-5.622-.339-2.617-.727-5.234-.969-7.851-.436-4.362-.388-5.525-1.115-7.706C719.3,39.2,718.23,38.235,717.26,37.8c-.242-.1-1.89-.872-2.859-.145-1.018.727-.727,2.52-.485,5.283.388,4.507-.194,2.084.339,8.627.436,5.67.775,5.719.824,9.111.048,2.859-.194,2.569-.145,6.252,0,3.1.194,4.265-.339,4.459-1.066.436-3.829-4.168-4.022-4.459a15.352,15.352,0,0,1-1.6-3.344c-.582-1.793-.291-2.375-.969-4.023-.533-1.26-.969-2.375-2.084-2.859a3.279,3.279,0,0,0-3.2.339c-1.212.824-1.454,2.326-1.6,3.538a11.5,11.5,0,0,0,.63,5.137c.921,2.908,1.7,2.859,2.859,6.106a30.1,30.1,0,0,1,1.26,4.653c.533,2.472.388,2.859.824,4.313.582,2.084,1.454,2.569,2.569,4.943a46.054,46.054,0,0,1,2.859,7.367,49.26,49.26,0,0,1,1.454,7.027c.242,1.648,20.307,2.615,20.791-.972.339-2.666,1.018-6.346,1.309-7.655a32.151,32.151,0,0,1,2.859-8.627c1.7-3.247,2.472-2.956,4.313-6.543a23.929,23.929,0,0,0,2.423-6.4c.582-2.811-.048-2.762.485-7.512C746,59.317,746.339,58.4,746,56.458Z" transform="translate(-680.436 -24.688)" fill="#437fb8"/>
      <path id="Path_496" dataName="Path 496" d="M743.057,161.055c.388-2.423.484-3.247,0-3.586-.485-.388-1.066.194-3.053.388a7.58,7.58,0,0,1-2.52-.1c-1.987-.436-2.714-1.6-3.2-1.309-.63.339-.145,2.375.436,4.6C734.721,161.2,742.67,163.43,743.057,161.055Z" transform="translate(-697.412 -87.074)" fill="#fff"/>
      <path id="Path_498" dataName="Path 498" d="M730.271,119.779c-1.5-.485-1.89-1.212-3-1.018-1.212.242-1.454,1.212-2.472,1.163-1.066-.048-1.793-1.26-2.132-1.648-.824-1.018-.339-1.551-1.26-3.683a10.219,10.219,0,0,0-1.26-2.278c-.775-1.115-1.26-1.26-1.6-2.229a2.37,2.37,0,0,1,.582-2.908,2.213,2.213,0,0,1,1.939-.485,1.555,1.555,0,0,1,.679.533c.727.969.1,1.842.485,3.393a5.828,5.828,0,0,0,1.018,2.132,5.655,5.655,0,0,0,1.793,1.939c.921.582,1.406.436,2.278,1.163.388.339.582.582.775.533.339-.1.436-.921.485-2.278a28.211,28.211,0,0,0,.049-4.507c0-.194-.242-1.357-.679-3.683a14.38,14.38,0,0,1-.436-3.683,9.247,9.247,0,0,1,.339-2.036c.242-.872.388-1.309.824-1.6a2.3,2.3,0,0,1,1.793,0,3,3,0,0,1,1.6.824c.533.727.1,1.7-.339,3.635a34.18,34.18,0,0,0-.63,3.974c-.194,2.666.485,2.569.194,4.992a5.887,5.887,0,0,0,.048,2.908c.242.582.775,1.5,1.406,1.454.727-.048,1.212-1.454,1.454-2.229a9.691,9.691,0,0,0,.436-2.132c.291-3.15.436-4.75.436-5.816a9.3,9.3,0,0,0-.291-3.2c-.242-.582-.582-1.018-.436-1.6a2,2,0,0,1,1.115-1.163,2.546,2.546,0,0,1,1.793-.194,2.206,2.206,0,0,1,1.115.63c.291.291.63.921.485,2.859a16,16,0,0,1-.63,3.247c-.048.242-.436,1.793-.775,3.393a42.462,42.462,0,0,0-.63,5.089c-.048.727-.1,1.212.048,1.26.339.145,1.357-1.648,1.793-2.617a10.217,10.217,0,0,0,1.018-3.053,18.892,18.892,0,0,0,.145-2.714,13.21,13.21,0,0,1,.048-2.423,2.992,2.992,0,0,1,.678-1.6,2.067,2.067,0,0,1,1.648-.533,2.6,2.6,0,0,1,1.939,2.036c.339,1.309-.291,2.52-1.26,4.362-.679,1.26-.824,1.212-1.406,2.423a17.472,17.472,0,0,0-.969,3.053c-.291,1.26-.291,1.5-.145,1.6.339.291,1.357-.242,2.036-.921.388-.388.63-.824,1.163-2.617a30.816,30.816,0,0,0,1.115-4.168c.048-.678.048-1.163.436-1.551a1.681,1.681,0,0,1,2.133-.194,2.266,2.266,0,0,1,.63,2.132c-.194,1.551-1.309,1.793-2.52,3.683a14.856,14.856,0,0,0-1.745,4.653,8.665,8.665,0,0,1-1.648,3.538,1.621,1.621,0,0,1-1.115.678c-.63,0-1.018-.678-1.551-1.163-.872-.921-1.987-1.115-3.732-1.405C732.888,119.245,732.5,120.457,730.271,119.779Z" transform="translate(-689.328 -57.186)" fill="#fff"/>
      <path id="Path_501" dataName="Path 501" d="M715.672,104.225c-.291.388-1.066-.194-1.89.242-.727.388-.727,1.212-1.115,1.26-.533,0-1.018-1.6-1.26-2.375a18.9,18.9,0,0,0-.582-2.375,8.13,8.13,0,0,0-1.308-2.084c-.485-.533-.969-.824-.921-1.26a.946.946,0,0,1,.582-.63c.485-.194.776.194,1.309,0s.485-.63.969-.727a1.141,1.141,0,0,1,1.018.388c.242.291.388.63.339,2.084-.048,1.648-.194,1.6-.048,1.89.388.921,1.357.678,2.326,1.842C715.479,103.013,715.915,103.886,715.672,104.225Z" transform="translate(-684.324 -56.074)" fill="#fff"/>
      <path id="Path_502" dataName="Path 502" d="M733.993,83.354c-.388-.872.194-1.6.436-2.908a6.889,6.889,0,0,0-.049-3.2c-.291-1.163-.678-1.115-1.066-2.52a3.233,3.233,0,0,1-.048-2.423,2.074,2.074,0,0,1,1.406-1.163,2.245,2.245,0,0,1,2.133.679c.194.194.436.582.436,2.762a22.534,22.534,0,0,0-.048,3.053,9.658,9.658,0,0,0,.775,2.714c.776,1.89,1.648,2.666,1.357,3.053-.291.339-1.066-.436-2.375-.145-1.212.242-1.745,1.163-2.423.921A2.349,2.349,0,0,1,733.993,83.354Z" transform="translate(-696.925 -43.104)" fill="#fff"/>
      <path id="Path_503" dataName="Path 503" d="M753.713,83.725c-1.308.1-1.939.921-2.229.679-.388-.291.339-1.454.921-3.635a17.126,17.126,0,0,0,.485-3.489,26.5,26.5,0,0,0-.049-4.7c-.145-1.309-.339-1.745,0-2.181.679-.872,2.666-.872,3.2-.048.291.485.049,1.115-.1,1.648-.872,2.762-.339,5.719.242,8.675.388,2.036.921,3.3.388,3.635C756.04,84.6,755.264,83.629,753.713,83.725Z" transform="translate(-706.371 -42.408)" fill="#fff"/>
      <path id="Path_504" dataName="Path 504" d="M767.358,80.36c-.824.533.484,2.52-.048,5.428a7.262,7.262,0,0,1-1.5,3.877,3.613,3.613,0,0,0-1.309,2.084c0,.1-.048.921.388,1.26.484.339.969-.194,1.89-.048,1.163.194,1.454,1.163,1.987,1.018.63-.194.63-1.987.63-2.956,0-1.309-.242-1.5-.145-2.472a9.838,9.838,0,0,1,.921-3.053c1.308-3.635,1.115-4.12.921-4.362s-.775-.339-1.842-.582A5.4,5.4,0,0,0,767.358,80.36Z" transform="translate(-713.133 -47.863)" fill="#fff"/>
      <path id="Path_505" dataName="Path 505" d="M775.214,103.939c.436-.485.872-.388,1.551-.824a3.587,3.587,0,0,0,1.26-1.357c1.018-1.648.194-2.762,1.308-4.216.485-.679.921-.775,1.018-.775a1.905,1.905,0,0,1,2.036,1.309c.145.63-.339.969-1.26,2.472a17.335,17.335,0,0,0-1.308,2.714c-.824,2.084-.727,3.247-1.357,3.393-.436.1-.582-.582-1.6-.921-1.066-.339-1.745.145-2.036-.291A1.676,1.676,0,0,1,775.214,103.939Z" transform="translate(-718.424 -56.321)" fill="#fff"/>
      <path id="Path_516" dataName="Path 516" d="M706.515,88.792c-.388-.291-.291-.533-.727-2.956-.291-1.745-.436-2.326-.1-2.714a1.392,1.392,0,0,1,1.357-.291c.679.194.679.872,1.793,3.15.533,1.115.824,1.648.678,2.036C709.229,88.937,707.436,89.422,706.515,88.792Z" transform="translate(-682.728 -49.122)" fill="#fff"/>
      <path id="Path_517" dataName="Path 517" d="M731.475,56.476c-.872-.824-.194-1.89-.436-5.137-.242-3-.969-4.41-.145-5.137a1.742,1.742,0,0,1,1.745-.242c1.018.485.63,1.793,1.745,5.622,0,.048.339,1.163.582,2.666.242,1.648.1,1.939,0,2.084A2.689,2.689,0,0,1,731.475,56.476Z" transform="translate(-695.62 -30.088)" fill="#fff"/>
      <path id="Path_518" dataName="Path 518" d="M752.545,53.1c.63-1.405.63-2.811.63-5.525,0-3.2-1.212-4.75-.388-5.38a1.594,1.594,0,0,1,1.406-.048c1.7.775,1.745,4.265,1.793,6.155a16.041,16.041,0,0,0,.048,3.1c.291,1.454.824,2.326.436,2.666-.339.291-.824-.388-1.987-.339s-1.793.727-2.084.436C752.158,53.977,752.448,53.3,752.545,53.1Z" transform="translate(-706.852 -28.12)" fill="#fff"/>
      <path id="Path_519" dataName="Path 519" d="M771.041,51.8c-.678.485-.145,1.7.1,4.41a15.058,15.058,0,0,1,.048,4.168c-.291,1.7-.921,2.666-.339,3.344a1.99,1.99,0,0,0,1.454.485,2.526,2.526,0,0,0,1.842-.679c.63-.775-.1-1.745-.63-4.75-.242-1.551-.436-3.15-.436-3.15-.242-2.375-.145-3.489-.872-3.877A1.114,1.114,0,0,0,771.041,51.8Z" transform="translate(-716.285 -33.068)" fill="#fff"/>
      <path id="Path_520" dataName="Path 520" d="M787.482,73.5c-.63.1-1.018,3.683-.775,6.252a4.718,4.718,0,0,1-.242,2.811c-.242.436-.485.679-.388,1.018a1.711,1.711,0,0,0,2.181.727c.678-.388.291-1.405.339-4.6.048-2.569.339-4.41-.678-5.864C787.773,73.645,787.628,73.5,787.482,73.5Z" transform="translate(-724.243 -44.348)" fill="#fff"/>
      <path id="Path_521" dataName="Path 521" d="M732.959,143.918c.242-.63,1.454-.775,2.132-.727,1.115.048,1.309.533,2.472.824,1.066.291,1.163-.048,3.683-.145a11.233,11.233,0,0,1,3.3.145,5.464,5.464,0,0,1,2.714,1.6,3.611,3.611,0,0,1,1.018,2.084,2.2,2.2,0,0,1-.339,1.745,2.415,2.415,0,0,1-3,.339c-.727-.533-.484-1.212-1.163-1.6-.775-.388-1.405.242-2.811.339-1.163.1-1.308-.339-2.714-.485-2.714-.388-4.362.824-4.846.1-.339-.485.388-1.018.145-2.375C733.346,144.742,732.765,144.451,732.959,143.918Z" transform="translate(-696.861 -80.258)" fill="#fff"/>
    </g>
    <path id="Path_522" dataName="Path 522" d="M713.2,82.8" transform="translate(-688.557 -56.399)" fill="#fff"/>
    <path id="Path_559" dataName="Path 559" d="M674.82,5.522a33.6,33.6,0,1,1-33.6,33.6,33.617,33.617,0,0,1,33.6-33.6m0-2.322a35.919,35.919,0,1,0,35.92,35.919A35.925,35.925,0,0,0,674.82,3.2Z" transform="translate(-638.9 -3.2)" fill="#437fb8"/>
  </g>
</svg>
