<svg id="Group_772" data-name="Group 772" xmlns="http://www.w3.org/2000/svg" width="71.908" height="71.908" viewBox="0 0 71.908 71.908">
  <path id="Path_12" data-name="Path 12" d="M46.726,13.539c-.4,6.208-.73,12.483-1,18.89q-.8,17.877-.83,34.792l7.636,5.411,10.358,3.22H73.816l7.436-3.619c1-2.49,2.025-4.947,3.021-7.436,1.029-2.556,1.992-5.179,2.822-7.835a10.782,10.782,0,0,1,1.892-3.619,5.1,5.1,0,0,1,2.357-1.826,5.037,5.037,0,0,1,1.693-.266c1.793.133,3.685,2.822,4.349,6.706l3.419-8.831.8-10.856-2.025-8.565L92.905,18.154,81.883,9.123,61.533,6.7l-8.6,2.822Z" transform="translate(-30.659 -5.14)" fill="#437fb8"/>
  <path id="Path_15" data-name="Path 15" d="M81.1,125.275l3.054-21.911a12.751,12.751,0,0,1,1.428-3.121,3.409,3.409,0,0,0,.664-1.394,4.969,4.969,0,0,0-.1-1.926,8.231,8.231,0,0,1,0-2.855c.166-.664.332-1.494.963-1.826.7-.365,1.2.232,2.257.166a4.243,4.243,0,0,0,2.921-1.926,4.9,4.9,0,0,0,.266-4.515,5.132,5.132,0,0,0-4.017-3.154c-1.527-.2-3.552.3-4.15,1.527-.3.664.066.93-.1,2.357-.1.7-.3,2.556-1.262,2.888-.5.166-.764-.2-2.357-.863-1.394-.564-2.058-.863-2.689-.73-1.594.3-2.324,2.689-2.357,2.855-.5,1.726.1,2.955.6,5.046.166.73.3,2.656.6,6.474.5,6.938-1.062,21.347-1.162,22.309Z" transform="translate(-51.057 -55.957)" fill="#fff"/>
  <path id="Path_17" data-name="Path 17" d="M124.833,21.694a41.409,41.409,0,0,1,.5-5.976,28.8,28.8,0,0,0-9.594-8.067,38.342,38.342,0,0,0-5.611-2.158c-2.224-.73-4.648-.7-6.806-1.594h-.033c-.863.1-1.726.232-2.623.4a4.279,4.279,0,0,1-2.589-.332,13.76,13.76,0,0,0-2.722,4.283c-.4,1.029-2.158,5.445-.232,8.8.2.332.2.3,2.922,4.415.9,1.361,1.394,2.092,1.461,3.187a5.234,5.234,0,0,1-.963,3.287,22.246,22.246,0,0,1,3.453.133,8.43,8.43,0,0,1,2.556.5,6.562,6.562,0,0,1,3.187,3.187c1.262,2.722-2.258,5.445-.963,7.47.365.564.764.631.863,1.228.166,1.1-1.2,1.693-1.959,3.187a6.466,6.466,0,0,0-.465,3.585c.232,3.187,2.59,7.868,6.573,8.4a8.043,8.043,0,0,0,7.2-3.552c.963-1.461.963-2.755,2.457-4.05a6.657,6.657,0,0,1,3.287-1.461V40.95a12.9,12.9,0,0,1-1.361-.232c-8-1.892-11.122-10.956-11.387-11.752-.631-1.959-1.228-3.818-.232-5.013,1.129-1.361,3.818-1.295,5.511-.232a7.25,7.25,0,0,1,2.092,2.556c1.428,2.291,1.328,3.121,2.457,4.648.7.93,1.992,2.722,3.054,2.556.764-.1.133-1.2.033-2.855C124.7,28.334,124.866,25.014,124.833,21.694Z" transform="translate(-63.616 -3.269)" fill="#fff"/>
  <path id="Path_18" data-name="Path 18" d="M186.051,41.488c-.266-.4-.531-.8-.83-1.2-.133-.2-.3-.4-.365-.5a14.619,14.619,0,0,0-1.162-1.295,14.7,14.7,0,0,0-.6,2.556c-.266,1.992.1,2.357-.2,3.951-.4,2.058-1.162,2.224-.963,3.486s1.029,1.361,1.2,2.755a13.929,13.929,0,0,1-.365,2.523c-.266,2.291.033,2.656.2,2.755.1.066.4.266,1.228.033A6.213,6.213,0,0,0,187.246,54c1.129-1.527,1.029-2.357,2.457-4.648.166-.266.3-.465.432-.7C188.84,46.235,187.545,43.779,186.051,41.488Z" transform="translate(-122.178 -26.383)" fill="#fff"/>
  <path id="Path_19" data-name="Path 19" d="M195.841,117.465c0-.033.033-.066.033-.1a.51.51,0,0,1,.133-.2c0-.066.033-.1.066-.2.133-.432.3-.863.432-1.328a19.315,19.315,0,0,0,.564-2.755c-.166.963.133-.93.133-1,.066-.631.166-1.295.232-1.926A88.541,88.541,0,0,0,198,100.6a13.946,13.946,0,0,1-7.237,4.581,11.615,11.615,0,0,1-1.361.232v5.611a6.657,6.657,0,0,1,3.287,1.461c1.494,1.262,1.494,2.589,2.457,4.05A4.008,4.008,0,0,0,195.841,117.465Z" transform="translate(-127.186 -67.867)" fill="#fff"/>
  <path id="Path_20" data-name="Path 20" d="M187.256,115.219l-.656.063h-1.312l.234,5.781.594-.078.781-.074h.844" transform="translate(-124.916 -77.686)" fill="#fff"/>
  <path id="Path_21" data-name="Path 21" d="M37.921,4.324a33.63,33.63,0,1,1-33.6,33.63,33.65,33.65,0,0,1,33.6-33.63m0-2.324A35.954,35.954,0,1,0,73.908,37.954,35.931,35.931,0,0,0,37.921,2Z" transform="translate(-2 -2)" fill="#437fb8"/>
</svg>
