<svg id="knee-black" xmlns="http://www.w3.org/2000/svg" width="71.602" height="71.602" viewBox="0 0 71.602 71.602">
  <path id="Path_32" data-name="Path 32" d="M71.2,152.994a79.892,79.892,0,0,1,4.1-10.314,27.8,27.8,0,0,0,1.488-3.7,11.354,11.354,0,0,0,.6-3.008,9.667,9.667,0,0,0-.231-2.347c-.4-2.05-1.058-2.446-.959-3.868a2.227,2.227,0,0,1,.628-1.653,1.972,1.972,0,0,1,1.686-.264c.562.1.727.331,2.083,1.289a7.593,7.593,0,0,0,1.719,1.058,5.78,5.78,0,0,0,1.884.231c2.909.132,3.24.165,3.6.463a2.647,2.647,0,0,1,.893,1.851,3.426,3.426,0,0,1-.76,1.983,8.877,8.877,0,0,1-2.083,2.182c-.661.463-1.157,2.215-2.81,6.016-1.256,2.843-3.074,6.876-5.487,12.562l-4.364-.694Z" transform="translate(-48.159 -86.153)" fill="#fff"/>
  <path id="Path_33" data-name="Path 33" d="M102.4,42.3" transform="translate(-69.045 -28.945)" stroke="#000" stroke-miterlimit="10" stroke-width="1"/>
  <path id="Path_34" data-name="Path 34" d="M46.5,7.3a2.907,2.907,0,0,1,.2.331c3.6,5.851,6.347,9.884,8.231,12.562a63.29,63.29,0,0,1,4,6.281c1.289,2.314.992,2.149,2.942,5.917,1.851,3.57,2.446,4.364,2.876,6.314a9.439,9.439,0,0,1,0,4.793A10.407,10.407,0,0,1,63,46.638c-2.678,3.57-4.463,3.8-6.347,6.678a26.915,26.915,0,0,0-1.719,3.868s-1.554,3.57-3.735,8.463c-1.058,2.347-2.678,5.719-4.892,9.818L35.229,73.612,24.42,66.406c.033-.264.1-.992.264-1.851,1.322-7.57,5.752-14.215,7.669-16.628a11.236,11.236,0,0,0,1.322-1.983,8.507,8.507,0,0,0,1.256-4.165c-.033-1.455-.793-2.645-2.116-4.231-2.744-3.339-5.487-5.223-9.818-8.562-4.033-3.107-4.231-3.4-4.364-3.835-.231-.859.826-1.256,1.851-2.843,1.554-2.413,4.264-6.611,12.2-11.6l7.273-2.711Z" transform="translate(-12.949 -5.515)" fill="#437fb8" stroke="#437fb8" stroke-miterlimit="10" stroke-width="1"/>
  <path id="Path_35" data-name="Path 35" d="M52.7,150.386a91.789,91.789,0,0,1,5.124-11.438c.628-1.058.992-1.818,1.719-3.306a8.51,8.51,0,0,0,.959-2.512c.033-.231.165-1.256.231-2.347a5.32,5.32,0,0,1,.231-1.124c.132-.4.3-.859.529-.859s.463.5.463.562a1.9,1.9,0,0,1,.132.76,3.929,3.929,0,0,0,.364,1.421,11.115,11.115,0,0,1,.4,2.611,5.372,5.372,0,0,1-.661,3.173A17.544,17.544,0,0,1,60.8,138.75s-.661.727-1.388,1.521c-1.455,1.587-4.2,10.677-4.463,11.471Z" transform="translate(-35.775 -86.851)" fill="#fff"/>
  <path id="Path_36" data-name="Path 36" d="M63.437,11.6c8.595,11.5,11.6,16.2,12.529,18.148a10.641,10.641,0,0,0,2.248,3.6,18.777,18.777,0,0,1,2.81,2.678,7.186,7.186,0,0,1,1.091,1.851c.893,2.545-1.025,6.248-3.9,8.033-.529.331-3.339,2.083-6.215.926-1.421-.562-3.306-2.016-3.306-3.769a4.14,4.14,0,0,1,.826-2.413c.463-.6.793-.628.992-1.157a3.17,3.17,0,0,0-.43-2.347c-.463-.992-.793-.992-.992-1.752a6.216,6.216,0,0,1,0-1.752,7.024,7.024,0,0,0-.76-2.512c-.694-1.554-5.487-8.165-12.429-16.859L62.049,11.1Z" transform="translate(-37.917 -8.059)" fill="#fff"/>
  <path id="Path_37" data-name="Path 37" d="M135.786,104.847a5.371,5.371,0,0,0,1.223-2.314c.2-1.322-.76-1.917-.3-2.711a1.363,1.363,0,0,1,1.355-.661c.694.132.992.959,1.091,1.19a2.685,2.685,0,0,1,.165.826c.033,1.983.066,2.942.033,3.14-.331,2.016-1.983,4.364-3.438,4.264a1.514,1.514,0,0,1-1.289-.859,2.122,2.122,0,0,1,.264-1.62A6.666,6.666,0,0,1,135.786,104.847Z" transform="translate(-90.564 -66.997)" fill="#fff"/>
  <path id="Path_38" data-name="Path 38" d="M71.2,152.994a79.892,79.892,0,0,1,4.1-10.314,27.8,27.8,0,0,0,1.488-3.7,11.354,11.354,0,0,0,.6-3.008,9.667,9.667,0,0,0-.231-2.347c-.4-2.05-1.058-2.446-.959-3.868a2.227,2.227,0,0,1,.628-1.653,1.972,1.972,0,0,1,1.686-.264c.562.1.727.331,2.083,1.289a7.593,7.593,0,0,0,1.719,1.058,5.78,5.78,0,0,0,1.884.231c2.909.132,3.24.165,3.6.463a2.647,2.647,0,0,1,.893,1.851,3.426,3.426,0,0,1-.76,1.983,8.877,8.877,0,0,1-2.083,2.182c-.661.463-1.157,2.215-2.81,6.016-1.256,2.843-3.074,6.876-5.487,12.562l-4.364-.694Z" transform="translate(-48.159 -86.153)" fill="#fff"/>
  <g id="Group_296" data-name="Group 296">
    <path id="Path_39" data-name="Path 39" d="M37.3,4.214A33.487,33.487,0,1,1,3.814,37.7,33.506,33.506,0,0,1,37.3,4.214m0-2.314A35.8,35.8,0,1,0,73.1,37.7,35.806,35.806,0,0,0,37.3,1.9Z" transform="translate(-1.5 -1.9)" fill="#437fb8"/>
  </g>
</svg>
