<?xml version="1.0" encoding="utf-8"?>
<!-- Generator: Adobe Illustrator 26.5.1, SVG Export Plug-In . SVG Version: 6.00 Build 0)  -->
<svg version="1.1" id="Layer_1" xmlns="http://www.w3.org/2000/svg" xmlns:xlink="http://www.w3.org/1999/xlink" x="0px" y="0px"
	 viewBox="0 0 1177 464" style="enable-background:new 0 0 1177 464;" xml:space="preserve">
<style type="text/css">
	.st0{display:none;fill:#3882B2;}
	.st1{fill:#202020;}
	.st2{fill:#437FB8;}
	.st3{fill:none;stroke:#202020;stroke-width:3;}
</style>
<rect x="-165" y="-185" class="st0" width="1512" height="864"/>
<g>
	<path class="st1" d="M95.7,388.5c-10.8,0-19.4-3.5-25.9-10.5c-6.5-7-9.7-16.1-9.7-27.3c0-12.1,3.3-21.7,9.9-28.8
		c6.6-7.2,15.6-10.8,27-10.8c10.5,0,19,3.5,25.4,10.4c6.4,7,9.6,16.1,9.6,27.3c0,12.2-3.3,21.9-9.9,29S106.7,388.5,95.7,388.5z
		 M96.3,321.9c-6.9,0-12.4,2.6-16.7,7.7c-4.3,5.1-6.5,11.9-6.5,20.2c0,8.3,2.1,15,6.3,20.1c4.2,5.1,9.6,7.6,16.4,7.6
		c7.2,0,12.8-2.4,17-7.3c4.1-4.8,6.2-11.6,6.2-20.3c0-9-2-15.9-6-20.7C108.9,324.4,103.4,321.9,96.3,321.9z"/>
	<path class="st1" d="M238.3,387.2h-14.5l-12-20.1c-1.1-1.8-2.1-3.4-3.2-4.7c-1-1.3-2.1-2.4-3.1-3.2s-2.2-1.4-3.5-1.8
		c-1.3-0.4-2.7-0.6-4.2-0.6h-5v30.4h-12.4v-74.9H205c3.5,0,6.8,0.4,9.7,1.3c3,0.8,5.5,2.1,7.7,3.8s3.9,3.8,5.1,6.3
		c1.2,2.5,1.9,5.5,1.9,8.9c0,2.6-0.4,5.1-1.2,7.3c-0.8,2.2-1.9,4.2-3.3,5.9c-1.4,1.7-3.2,3.2-5.2,4.4c-2,1.2-4.3,2.2-6.9,2.8v0.2
		c1.4,0.8,2.5,1.6,3.6,2.5c1,0.9,2,1.9,2.9,2.8c0.9,1,1.8,2.1,2.7,3.3c0.9,1.2,1.9,2.7,3,4.3L238.3,387.2z M192.8,322.4v24.3h10.3
		c1.9,0,3.7-0.3,5.3-0.9c1.6-0.6,3-1.4,4.2-2.6c1.2-1.1,2.1-2.5,2.8-4.1c0.7-1.6,1-3.4,1-5.4c0-3.6-1.1-6.4-3.4-8.4
		c-2.3-2-5.5-3-9.8-3H192.8z"/>
	<path class="st1" d="M327.2,322.8h-21.5v64.4h-12.4v-64.4h-21.5v-10.6h55.4V322.8z"/>
	<path class="st1" d="M433,387.2h-12.5v-32.5h-35.3v32.5h-12.4v-74.9h12.4v31.5h35.3v-31.5H433V387.2z"/>
	<path class="st1" d="M517.1,388.5c-10.8,0-19.4-3.5-25.9-10.5c-6.5-7-9.7-16.1-9.7-27.3c0-12.1,3.3-21.7,9.9-28.8
		c6.6-7.2,15.6-10.8,27-10.8c10.5,0,19,3.5,25.4,10.4c6.4,7,9.6,16.1,9.6,27.3c0,12.2-3.3,21.9-9.9,29S528.1,388.5,517.1,388.5z
		 M517.7,321.9c-6.9,0-12.4,2.6-16.7,7.7c-4.3,5.1-6.5,11.9-6.5,20.2c0,8.3,2.1,15,6.3,20.1c4.2,5.1,9.6,7.6,16.4,7.6
		c7.2,0,12.8-2.4,17-7.3c4.1-4.8,6.2-11.6,6.2-20.3c0-9-2-15.9-6-20.7C530.3,324.4,524.7,321.9,517.7,321.9z"/>
	<path class="st1" d="M614.1,360v27.2h-12.4v-74.9h22.7c8.6,0,15.3,2,20,6c4.7,4,7.1,9.6,7.1,16.9c0,7.3-2.5,13.2-7.4,17.9
		c-4.9,4.6-11.6,6.9-20.1,6.9H614.1z M614.1,322.5v27.4h8c5.3,0,9.4-1.2,12.2-3.7c2.8-2.5,4.2-6,4.2-10.4c0-8.8-5.1-13.2-15.4-13.2
		H614.1z"/>
	<path class="st1" d="M741,387.2H699v-74.9h40.4v10.6h-28V344h25.8v10.5h-25.8v22.2H741V387.2z"/>
	<path class="st1" d="M789,387.2v-74.9h21.6c27.6,0,41.4,12.2,41.4,36.5c0,11.6-3.8,20.9-11.5,27.9c-7.7,7-17.9,10.5-30.8,10.5H789z
		 M801.4,322.8v53.9h9.9c8.7,0,15.5-2.4,20.4-7.2c4.9-4.8,7.3-11.6,7.3-20.4c0-17.5-9.1-26.3-27.2-26.3H801.4z"/>
	<path class="st1" d="M913.2,387.2h-12.8v-74.9h12.8V387.2z"/>
	<path class="st1" d="M1018.5,384.1c-5.6,2.9-12.7,4.4-21.1,4.4c-10.9,0-19.6-3.4-26.1-10.3c-6.5-6.9-9.8-15.9-9.8-27
		c0-12,3.7-21.7,11-29c7.4-7.4,16.7-11.1,27.9-11.1c7.2,0,13.3,1,18,3.1v12.3c-5.1-3-10.6-4.5-16.7-4.5c-8.1,0-14.7,2.6-19.7,7.8
		c-5,5.2-7.5,12.1-7.5,20.8c0,8.3,2.4,14.8,7.1,19.7c4.7,4.9,10.9,7.3,18.5,7.3c7.1,0,13.2-1.7,18.4-5V384.1z"/>
	<path class="st1" d="M1064,384.2v-12.8c1.2,1,2.5,2,4.1,2.8s3.3,1.5,5,2.1c1.8,0.6,3.6,1,5.3,1.3s3.4,0.5,4.9,0.5
		c5.2,0,9.1-0.9,11.7-2.6c2.6-1.7,3.8-4.3,3.8-7.6c0-1.8-0.4-3.3-1.3-4.6c-0.9-1.3-2-2.5-3.6-3.6c-1.5-1.1-3.3-2.1-5.4-3.1
		c-2.1-1-4.3-2-6.7-3.1c-2.5-1.4-4.9-2.7-7.1-4.1c-2.2-1.4-4.1-2.9-5.7-4.6c-1.6-1.7-2.9-3.6-3.8-5.7c-0.9-2.1-1.4-4.6-1.4-7.5
		c0-3.5,0.8-6.6,2.4-9.2s3.7-4.7,6.3-6.4c2.6-1.7,5.5-2.9,8.9-3.8c3.3-0.8,6.7-1.2,10.1-1.2c7.8,0,13.5,0.9,17.1,2.7V326
		c-4.2-3.1-9.7-4.6-16.4-4.6c-1.8,0-3.7,0.2-5.5,0.5c-1.8,0.3-3.5,0.9-4.9,1.7c-1.4,0.8-2.6,1.8-3.5,3.1c-0.9,1.3-1.4,2.8-1.4,4.5
		c0,1.7,0.3,3.1,1,4.3c0.7,1.2,1.7,2.3,3.1,3.3c1.3,1,3,2,4.9,3c1.9,1,4.2,2,6.7,3.1c2.6,1.4,5.1,2.8,7.4,4.3c2.3,1.5,4.4,3.2,6.1,5
		c1.8,1.8,3.2,3.8,4.2,6s1.5,4.7,1.5,7.5c0,3.8-0.8,7-2.3,9.6c-1.5,2.6-3.6,4.7-6.2,6.4c-2.6,1.6-5.6,2.8-9,3.6
		c-3.4,0.7-6.9,1.1-10.7,1.1c-1.3,0-2.8-0.1-4.6-0.3c-1.8-0.2-3.7-0.5-5.6-0.8c-1.9-0.4-3.7-0.8-5.4-1.3
		C1066.4,385.5,1065,384.9,1064,384.2z"/>
</g>
<g>
	<path class="st2" d="M193.3,211.8h-11l-21.6-47.2H94.1l-21.6,47.2h-11l63-137.4h5.8L193.3,211.8z M127.3,91.6l-29.2,64.2h58.6
		L127.3,91.6z"/>
	<path class="st2" d="M263.1,139.8c-4.3-3.9-7.7-6.5-10.3-8c-2.6-1.5-5.2-2.2-7.7-2.2c-4.4,0-9.1,2.2-14,6.7
		c-4.9,4.5-9.9,10.8-14.8,19.1v56.4h-9.6V122h9.6v23.6h0.4c10.7-16.9,21.1-25.4,31.4-25.4c3.1,0,6.2,0.8,9.3,2.4
		c3.1,1.6,6.9,4.3,11.3,8.2L263.1,139.8z"/>
	<path class="st2" d="M287.7,137.6h0.4c4.1-6.3,8.5-10.7,13-13.4c4.5-2.7,10.1-4,16.6-4c10,0,18.1,3.2,24.2,9.6
		c6.1,6.4,9.2,15.5,9.2,27.2v54.8h-9.6v-51.2c0-10.1-2.1-17.8-6.3-23.1c-4.2-5.3-10.2-7.9-18.1-7.9c-6.4,0-11.9,1.5-16.4,4.6
		c-4.5,3.1-8.9,7.9-13,14.6v63h-9.6V122h9.6V137.6z"/>
	<path class="st2" d="M460.1,185.4c-2.3,5.7-5.5,10.7-9.6,14.9c-4.1,4.2-9,7.5-14.5,9.8c-5.5,2.3-11.6,3.5-18.1,3.5
		c-6.4,0-12.4-1.2-18.1-3.5c-5.7-2.3-10.6-5.6-14.7-9.8c-4.1-4.2-7.3-9.2-9.6-14.9c-2.3-5.7-3.4-11.9-3.4-18.4
		c0-6.5,1.1-12.7,3.4-18.4c2.3-5.7,5.5-10.7,9.7-15c4.2-4.3,9.1-7.6,14.7-9.9c5.6-2.3,11.6-3.5,18-3.5c6.5,0,12.6,1.2,18.1,3.5
		c5.5,2.3,10.4,5.6,14.5,9.9c4.1,4.3,7.3,9.2,9.6,14.9c2.3,5.7,3.4,11.8,3.4,18.5C463.5,173.5,462.4,179.7,460.1,185.4z
		 M450.7,152.2c-1.7-4.5-4.2-8.5-7.4-11.9c-3.2-3.4-7-6-11.4-7.9c-4.4-1.9-9.1-2.8-14-2.8c-10.1,0-18.6,3.5-25.4,10.6
		c-3.2,3.3-5.7,7.3-7.5,11.9c-1.8,4.6-2.7,9.6-2.7,14.9c0,5.2,0.9,10.1,2.7,14.7c1.8,4.6,4.3,8.6,7.5,11.9
		c6.8,7.1,15.3,10.6,25.4,10.6c5.1,0,9.7-0.9,14-2.8c4.3-1.9,8-4.5,11.3-7.8c3.3-3.3,5.8-7.3,7.5-11.8c1.7-4.5,2.6-9.5,2.6-14.8
		C453.3,161.7,452.4,156.7,450.7,152.2z"/>
	<path class="st2" d="M502.1,122h25.2v7.8h-25.2v53.4c0,8.5,0.7,14.2,2.1,16.9c1.4,2.7,5.2,4.1,11.3,4.1c2.7,0,5.1-0.3,7.2-0.8
		c2.1-0.5,5.2-1.7,9.2-3.6v9.2c-1.5,0.8-4.2,1.8-8.2,3c-4.5,1.1-8,1.6-10.4,1.6c-5.6,0-10.5-1.6-14.6-4.9c-4.1-3.3-6.2-8-6.2-14.3
		v-64.6h-24.2V122h24.2v-21.4l6.6-8.4h3V122z"/>
	<path class="st1" d="M591.1,97.5l-6.8,37.9h74.6l8-43.8c0.4-2.3,0.6-4.3,0.6-6c0-3.6-1-6-3-7.2c-1.3-0.8-3.7-1.2-7-1.2h-6.8l1-5
		c9.6,0.4,19,0.6,28.2,0.6c2.7,0,6.7-0.1,12.2-0.3c5.5-0.2,9.6-0.3,12.4-0.3l-1,5h-3.6c-5.9,0-9.8,1.3-11.8,4
		c-1.3,2-2.8,7.4-4.4,16.2l-16.6,89.1c-1.1,5.9-1.6,10.2-1.6,12.8c0,2.9,0.7,4.9,2,5.9c1.3,1,3.7,1.5,7.2,1.5h7.4l-1,5
		c-2.9,0-7.4,0-13.3,0c-5.9,0-10.4,0-13.3,0c-5.7,0-14.3,0-25.8,0l1-5h3.8c5.6,0,9.3-1.2,11.2-3.6c1.3-1.9,2.7-6.3,4-13.2l8.4-46.3
		h-74.2l-8.2,42.9c-1.1,5.9-1.6,10.2-1.6,12.8c0,2.9,0.7,4.9,2,5.9c1.3,1,3.7,1.5,7.2,1.5h7.4l-1,5c-2.9,0-7.4,0-13.3,0
		c-5.9,0-10.4,0-13.3,0c-5.7,0-14.3,0-25.8,0l1-5h3.8c5.6,0,9.3-1.2,11.2-3.6c1.3-1.9,2.7-6.3,4-13.2l18-98.3c0.4-2.3,0.6-4.3,0.6-6
		c0-3.6-1-6-3-7.2c-1.3-0.8-3.7-1.2-7-1.2h-6.8l1-5c9.6,0.4,19,0.6,28.2,0.6c2.7,0,6.7-0.1,12.2-0.3c5.5-0.2,9.6-0.3,12.4-0.3l-1,5
		h-3.6c-6,0-9.9,1.3-11.8,4C594.2,83.4,592.7,88.8,591.1,97.5z"/>
	<path class="st1" d="M773.5,185.4l2.8,3.4c-15.7,17.3-30.9,26-45.4,26c-8.5,0-14.9-2.8-19.2-8.4c-3.6-4.8-5.4-11-5.4-18.6
		c0-16.3,6-31.6,18.1-45.9c12-14.3,25.2-21.5,39.4-21.5c13,0,19.5,4.7,19.5,14.2c0,12-7.3,21.6-21.8,28.8
		c-10.5,5.2-23.1,8.5-37.8,9.8c-1.1,4.7-1.6,9.8-1.6,15.4c0,4.8,1.5,8.6,4.6,11.3c3.1,2.7,7,4.1,11.8,4.1
		C749,204,760.6,197.8,773.5,185.4z M724.9,168.2c10.9-0.7,20.3-3.5,28.2-8.6c9.6-6,14.4-14.1,14.4-24.1c0-5.8-2.7-8.6-8.2-8.6
		c-6.9,0-14.2,5.2-21.8,15.7C731.1,151.5,726.9,160,724.9,168.2z"/>
	<path class="st1" d="M868.1,127l2.8-6.4c1.5-2.7,2.9-4,4.4-4h4.2c1.2,0,1.8,0.3,1.8,1c0,0.1-0.1,0.7-0.4,1.6l-19.8,71
		c-0.5,1.9-0.8,3.5-0.8,5c0,1.9,0.8,2.8,2.4,2.8c2.4,0,5.1-1.5,8.2-4.6c2.1-2.4,4.3-4.8,6.6-7.2l3.2,2.6c-4.7,5.3-9.4,10.7-14.2,16
		c-6.5,6.7-12.5,10-17.8,10c-4.5,0-6.8-1.9-6.8-5.6c0-2.7,1.1-7.5,3.4-14.6l5.8-18.2h-0.4l-0.2,0.4h0.4l-0.2-0.4
		c-16.9,25.6-31.9,38.4-44.8,38.4c-10.1,0-15.2-5.5-15.2-16.6c0-15.9,7.6-32.8,22.7-50.8c15.1-18,29.2-27,42.1-27
		C860.4,120.4,864.6,122.6,868.1,127z M805.5,186.2c0,9.2,3.4,13.8,10.2,13.8c9.1,0,18.9-7.8,29.4-23.4
		c9.9-14.5,14.8-26.7,14.8-36.6c0-2.5-1-4.9-3.1-7c-2.1-2.1-4.4-3.2-6.9-3.2c-10.1,0-20.2,6.9-30.2,20.8
		C810.2,163.5,805.5,175.4,805.5,186.2z"/>
	<path class="st1" d="M946.3,60.2l-31.2,130.4c-0.4,1.7-0.6,3.1-0.6,4c0,2.8,0.9,4.2,2.6,4.2c2.8,0,7.9-5.1,15.4-15.4l2.4,4.2
		c-8.5,11.2-12.9,16.8-13,16.8c-6.3,6.9-12,10.4-17.2,10.4c-4.9,0-7.4-3.3-7.4-9.8c0-2.5,0.5-5.8,1.4-9.8l28-120.8l-12-6.4l1-2.8
		c4.9-0.4,9.8-1.1,14.6-2.2c4-0.8,8.9-2.1,14.6-4L946.3,60.2z"/>
	<path class="st1" d="M975.9,123.4l7.6-25.2h16l-8.2,25.2h21.4l-2.4,8.2h-21.2l-17.4,57.8c-0.8,2.7-1.2,4.7-1.2,6.2
		c0,2.9,1.3,4.4,4,4.4c4.9,0,13.2-5.8,24.8-17.4l2.8,3.4c-17.3,19.2-30.7,28.8-40,28.8c-2.8,0-5-1-6.5-3.1c-1.5-2.1-2.3-4.5-2.3-7.3
		c0-2.7,0.9-6.9,2.6-12.8l17.8-60h-19.6l2.4-8.2H975.9z"/>
	<path class="st1" d="M1069.3,59.8l-28.2,105.4h0.4c5.8-9.2,13.6-18.4,23.3-27.6c12.4-11.5,22.7-17.2,30.9-17.2
		c9.6,0,14.4,5.8,14.4,17.4s-4.9,26.5-14.7,44.6c-10.6,19.6-20.7,29.4-30.1,29.4c-3.2,0-4.8-1.5-4.8-4.4c0-1.1,0.3-2.4,1-4l4.2-9.8
		h13.8c3.6-7.2,6.9-15.3,9.8-24.2c3.3-10.5,5-18.9,5-25.2c0-7.9-2.7-11.8-8-11.8c-6.1,0-14.3,5.6-24.6,16.7
		c-8.4,9.2-14.6,17.6-18.6,25.1c-4.4,8.4-8.4,19.9-12,34.4c-0.5,2.1-3.4,3.2-8.6,3.2c-4.3,0-6.4-1.1-6.4-3.4c0-0.8,0.4-2.9,1.2-6.2
		l31.6-129.7l-9.8-5.6l0.6-2.6c2.8-0.3,7.2-0.9,13.2-1.8c3.9-0.7,8.6-1.8,14.2-3.4L1069.3,59.8z"/>
</g>
<line class="st3" x1="59" y1="262" x2="1110" y2="262"/>
</svg>
