<svg xmlns="http://www.w3.org/2000/svg" width="71.84" height="71.84" viewBox="0 0 71.84 71.84">
  <g id="Group_665" dataName="Group 665" transform="translate(-320.078 -7450.445)">
    <path id="Path_49" dataName="Path 49" d="M29.675,10.32l1.26,2.355c.033.033.066.1.1.133l2.09,1.924c.033.033.066.033.1.066l2.952,1.592a3.241,3.241,0,0,0,1,.365l4.378.962,4.71,1.028a.122.122,0,0,1,.1.033L50.9,20.735c.033,0,.066.033.1.066l2.521,1.857.1.1,2.62,3.25a.251.251,0,0,1,.066.133l1.227,3.35v.033L58.4,32.41a.122.122,0,0,0,.033.1l3.25,36.915a.5.5,0,0,1-.133.365L58.4,73.073a.458.458,0,0,1-.133.1L54.451,75.2a.032.032,0,0,0-.033.033l-4.046,1.625a.2.2,0,0,1-.133.033l-4.212.3h-.4s-3.516-14.395-3.416-14.66c.066-.2-.332-3.051-.5-4.179a.445.445,0,0,0-.5-.4h0a.514.514,0,0,0-.365.265L38.1,64.383c0,.033,0,.033-.033.066l-2.521,8.458v.033l-.929,4.212a.486.486,0,0,1-.564.365l-7.2-1.625c-.033,0-.066-.033-.133-.033L18.4,71.415c-.033-.033-.1-.066-.133-.1L8.979,61.033a.725.725,0,0,1-.1-.166l-3.35-9.519c0-.033-.033-.066-.033-.1l-.8-6.7v-5.8a.2.2,0,0,1,.033-.133L8.05,28.231a.251.251,0,0,1,.066-.133l6.6-9.585c.033-.033.066-.1.133-.133l9.187-6.3a.122.122,0,0,1,.1-.033l4.975-1.924A.438.438,0,0,1,29.675,10.32Z" transform="translate(316.439 7443.011)" fill="#437fb8" stroke="#437fb8" strokeMiterlimit="10" strokeWidth="1"/>
    <path id="Path_50" dataName="Path 50" d="M102.4,42.5" transform="translate(251.145 7421.345)" stroke="#000" strokeMiterlimit="10" strokeWidth="1"/>
    <path id="Path_51" dataName="Path 51" d="M17.845,44.75a38.145,38.145,0,0,1,7.3-.564,75.264,75.264,0,0,1,9.585,1.095,25.472,25.472,0,0,0,4.842.63,33.984,33.984,0,0,0,4.876-.166,3.237,3.237,0,0,1,1.692-.033A3.726,3.726,0,0,1,48.326,47.9c.5,1.227.73,3.383-.564,4.279a3.268,3.268,0,0,1-2.786.1c-1.393-.5-2.322-1.493-3.682-2.322-.962-.564-3.648-.929-5.24-1.161a30.3,30.3,0,0,0-5.041-.531C23.65,48.1,14.6,50.62,13.6,50.886Z" transform="translate(310.492 7420.223)" fill="#fff"/>
    <path id="Path_52" dataName="Path 52" d="M128.012,122.6l-4.776,2.189-4.179-21.625a60.717,60.717,0,0,0-2.289-8.557,4.522,4.522,0,0,0-.7-1.227c-.862-1.128-1.692-1.095-2.488-2.056a4.121,4.121,0,0,1-.862-2.189c-.066-.464-.4-2.554.862-3.549a3.24,3.24,0,0,1,1.924-.564c.7.033.9.332,1.692.3a2.866,2.866,0,0,0,1.426-.365c.63-.365.6-.763,1.128-1.194a3.354,3.354,0,0,1,2.123-.564,4.009,4.009,0,0,1,2.687,1c.829.8.929,1.791,1.128,3.217a14.718,14.718,0,0,1-.5,5.605,15.835,15.835,0,0,0-.5,1.791,11.072,11.072,0,0,0-.133,3.217l.5,5.937Z" transform="translate(244.305 7394.144)" fill="#fff"/>
    <path id="Path_53" dataName="Path 53" d="M33.981,113.995a4.113,4.113,0,0,1-2.653,1.426c-3.118.4-5.771-2.985-6.4-3.814a15.183,15.183,0,0,1-2.521-5.141C19.553,96.615,16.9,92.7,16.038,84.244a9.16,9.16,0,0,1,.63-4.842c.862-1.924,2.753-4.013,5.075-4.312a19.476,19.476,0,0,1,3.151.365c2.554.365,3.814.531,4.113.531a47.6,47.6,0,0,0,6.368-.8,10.282,10.282,0,0,1,2.985-.265c.7.066,3.018.332,3.881,1.99a4.054,4.054,0,0,1,.232,2.488c-.2,2.255-1.095,2.488-1.128,4.312a4.7,4.7,0,0,0,.962,3.217c.431.5.73.531,1.061,1.061.232.431.332.862.265,2.521a15.894,15.894,0,0,1-.3,3.151,11.337,11.337,0,0,1-1.028,2.488,32.185,32.185,0,0,1-2.653,4.013,36.06,36.06,0,0,0-2.919,6c-1.327,3.118-2.023,4.677-2.123,5.539A3.708,3.708,0,0,1,33.981,113.995Z" transform="translate(308.916 7399.701)" fill="#fff"/>
    <g id="Group_299" dataName="Group 299" transform="translate(320.078 7450.445)">
      <path id="Path_54" dataName="Path 54" d="M37.42,4.422a33.6,33.6,0,1,1-33.6,33.6,33.618,33.618,0,0,1,33.6-33.6m0-2.322A35.92,35.92,0,1,0,73.34,38.02,35.925,35.925,0,0,0,37.42,2.1Z" transform="translate(-1.5 -2.1)" fill="#437fb8"/>
    </g>
  </g>
</svg>
